<svg xmlns="http://www.w3.org/2000/svg" viewBox="0 0 146.69 126.62"><defs><style>.cls-1{fill:#141010;}.cls-2,.cls-6{fill:#f9f4f4;}.cls-3,.cls-4,.cls-5{fill:none;stroke:#f9f4f4;stroke-miterlimit:10;}.cls-3{stroke-width:0.75px;}.cls-4{stroke-width:0.5px;}.cls-5{stroke-width:0.2px;}.cls-6{font-size:57.34px;font-family:QuigleyWiggly;}.cls-7{letter-spacing:-0.01em;}</style></defs><g id="Capa_2" data-name="Capa 2"><g id="Objects"><circle class="cls-1" cx="73.25" cy="44.7" r="44.7"/><circle class="cls-2" cx="73.25" cy="44.7" r="15"/><path class="cls-2" d="M86.38,44.7A1.43,1.43,0,1,1,85,43.27,1.42,1.42,0,0,1,86.38,44.7Z" transform="translate(-11.71)"/><circle class="cls-3" cx="73.25" cy="44.7" r="31.58"/><circle class="cls-4" cx="73.25" cy="44.7" r="21.52"/><circle class="cls-5" cx="73.25" cy="44.7" r="28.29"/><circle class="cls-5" cx="73.25" cy="44.7" r="33.5"/><circle class="cls-5" cx="73.25" cy="44.7" r="26.73"/><circle class="cls-5" cx="73.25" cy="44.7" r="42.4"/><circle class="cls-5" cx="73.25" cy="44.7" r="40.93"/><circle class="cls-5" cx="73.25" cy="44.7" r="39.52"/><path class="cls-1" d="M41.06,121.61l.86-4.46,1.6.31a2.45,2.45,0,0,1,.93.36,1.4,1.4,0,0,1,.52.64,1.5,1.5,0,0,1,.06.85,1.55,1.55,0,0,1-.37.76,1.42,1.42,0,0,1-.72.4,2.41,2.41,0,0,1-1,0l-1.42-.27.18-.12-.31,1.61Zm.63-1.53-.11-.18,1.42.27a1.64,1.64,0,0,0,1.15-.11,1.13,1.13,0,0,0,.55-.81,1.18,1.18,0,0,0-.2-1,1.74,1.74,0,0,0-1-.53L42,117.48l.18-.13Z" transform="translate(-11.71)"/><path class="cls-1" d="M47.45,122.79l.73-4.48,1.61.26a2.33,2.33,0,0,1,.94.34,1.35,1.35,0,0,1,.53.61,1.49,1.49,0,0,1,.09.85,1.39,1.39,0,0,1-1.06,1.19,2.31,2.31,0,0,1-1,0l-1.43-.23.17-.13-.26,1.62Zm.59-1.55-.13-.17,1.43.23a1.7,1.7,0,0,0,1.16-.14,1.2,1.2,0,0,0,.52-.84,1.15,1.15,0,0,0-.23-1,1.73,1.73,0,0,0-1-.5l-1.43-.23.17-.13Zm2.53,2.06-.91-1.82.38.06.9,1.82Z" transform="translate(-11.71)"/><path class="cls-1" d="M54.33,123.54l2.78.37,0,.3L54,123.8l.6-4.51,3,.4,0,.3-2.68-.36Zm.24-2.14,2.44.33,0,.29-2.43-.33Z" transform="translate(-11.71)"/><path class="cls-1" d="M60.16,124.58l.46-4.52.27,0,1.74,3.83h-.15l2.46-3.42.27,0L64.76,125l-.32,0,.4-4h.09l-2.33,3.22-.16,0-1.65-3.62h.1l-.4,4Z" transform="translate(-11.71)"/><path class="cls-1" d="M68.27,125.32l.33-4.53.33,0-.33,4.53Z" transform="translate(-11.71)"/><path class="cls-1" d="M73.85,125.7a1.81,1.81,0,0,1-1.3-.56,2,2,0,0,1-.41-1.49l.12-2.61h.34l-.13,2.6a1.78,1.78,0,0,0,.32,1.28,1.44,1.44,0,0,0,1.09.46A1.4,1.4,0,0,0,75,125a1.79,1.79,0,0,0,.45-1.24l.13-2.6.33,0-.13,2.61a2,2,0,0,1-.56,1.44A1.79,1.79,0,0,1,73.85,125.7Z" transform="translate(-11.71)"/><path class="cls-1" d="M79.16,125.88l.07-4.55h.28l2,3.67h-.15l2.16-3.61h.27L83.78,126h-.32l.05-4h.09l-2,3.41h-.17l-1.94-3.47h.1l-.07,4Z" transform="translate(-11.71)"/><path class="cls-1" d="M92.83,125.84a2.41,2.41,0,0,1-.94-.14,2.24,2.24,0,0,1-1.29-1.17,2.29,2.29,0,0,1-.21-.91,2.54,2.54,0,0,1,.14-.92A2.44,2.44,0,0,1,91,122a2.39,2.39,0,0,1,.74-.51,2.53,2.53,0,0,1,.93-.2,2.31,2.31,0,0,1,1,.14,2.16,2.16,0,0,1,.76.45,2.3,2.3,0,0,1,.73,1.63,2.31,2.31,0,0,1-.14.92,2.19,2.19,0,0,1-.48.75,2.39,2.39,0,0,1-.73.51A2.53,2.53,0,0,1,92.83,125.84Zm0-.3a2.08,2.08,0,0,0,.8-.18,2.16,2.16,0,0,0,.63-.44,2.08,2.08,0,0,0,.4-.65,2.13,2.13,0,0,0,.13-.8,2,2,0,0,0-.18-.79,2,2,0,0,0-.45-.62,2,2,0,0,0-.66-.4,2.15,2.15,0,0,0-.81-.12,2.13,2.13,0,0,0-.8.18,2,2,0,0,0-.63.44,2,2,0,0,0-.53,1.45,2,2,0,0,0,.63,1.41,2.2,2.2,0,0,0,.66.4A2.15,2.15,0,0,0,92.82,125.54Zm1.53,1.08a1.2,1.2,0,0,1-.38,0,2,2,0,0,1-.38-.14,2.35,2.35,0,0,1-.4-.27,5,5,0,0,1-.44-.4l.37-.1a4.9,4.9,0,0,0,.43.39,1.37,1.37,0,0,0,.41.22.86.86,0,0,0,.38.06,1.1,1.1,0,0,0,.88-.46l.18.19A1.29,1.29,0,0,1,94.35,126.62Z" transform="translate(-11.71)"/><path class="cls-1" d="M100,125.48a1.79,1.79,0,0,1-1.36-.4,2,2,0,0,1-.59-1.43L97.89,121l.33,0,.17,2.6a1.75,1.75,0,0,0,.48,1.23,1.42,1.42,0,0,0,1.12.34,1.44,1.44,0,0,0,1.07-.48,1.83,1.83,0,0,0,.31-1.29l-.18-2.59.33,0,.18,2.62a2,2,0,0,1-.39,1.49A1.8,1.8,0,0,1,100,125.48Z" transform="translate(-11.71)"/><path class="cls-1" d="M104.44,125.12l1.65-4.72.33,0,2.51,4.32-.35,0-2.38-4.13h.14l-1.54,4.5Zm.64-1.34.08-.29,2.71-.26.14.27Z" transform="translate(-11.71)"/><path class="cls-1" d="M111.66,124.38l-.56-4.51.33,0L112,124l2.59-.32,0,.3Z" transform="translate(-11.71)"/><path class="cls-1" d="M117.34,123.62l-.66-4.49.33,0,.66,4.5Z" transform="translate(-11.71)"/><path class="cls-1" d="M122,122.9l-.7-4.18-1.61.27,0-.3,3.55-.59,0,.29-1.61.27.7,4.19Z" transform="translate(-11.71)"/><path class="cls-1" d="M127.65,121.89l-.32-1.62.12.19L125,117.77l.36-.07,2.24,2.45-.18,0,1.17-3.1.33-.07-1.28,3.42,0-.23.31,1.62Z" transform="translate(-11.71)"/><path class="cls-1" d="M85.05,113.88A230.77,230.77,0,0,1,13,102.41l-.76-.25V47.87l.76-.25a232.25,232.25,0,0,1,144.17,0l.76.25v54.29l-.76.25A230.79,230.79,0,0,1,85.05,113.88Z" transform="translate(-11.71)"/><path class="cls-2" d="M85.05,36.65A230.06,230.06,0,0,1,157,48.1l.42.13V101.8l-.42.14a230.35,230.35,0,0,1-71.93,11.44,230.28,230.28,0,0,1-71.92-11.44l-.42-.14V48.23l.42-.13A230,230,0,0,1,85.05,36.65m0-1a231.1,231.1,0,0,0-72.23,11.5l-.42.13-.69.23v55l.69.23.42.14a231.38,231.38,0,0,0,72.23,11.49,231.4,231.4,0,0,0,72.24-11.49l.42-.14.69-.23v-55l-.69-.23-.42-.13a231.17,231.17,0,0,0-72.24-11.5Z" transform="translate(-11.71)"/><path class="cls-4" d="M85.05,111.22a228.2,228.2,0,0,1-70.18-11V49.8a229.8,229.8,0,0,1,140.37,0v50.43A228.22,228.22,0,0,1,85.05,111.22Z" transform="translate(-11.71)"/><text class="cls-6" transform="translate(17.1 89.21)">M<tspan class="cls-7" x="46.45" y="0">us</tspan><tspan x="83.37" y="0">ic</tspan></text><path class="cls-2" d="M70,100.66a3.58,3.58,0,0,1-1.31-.24,2.34,2.34,0,0,1-1-.61l.2-.33a2.6,2.6,0,0,0,.88.55,3.1,3.1,0,0,0,1.18.23,2.71,2.71,0,0,0,1-.17,1.23,1.23,0,0,0,.59-.44,1.08,1.08,0,0,0,.19-.61.89.89,0,0,0-.22-.64A1.43,1.43,0,0,0,71,98a4.12,4.12,0,0,0-.75-.24l-.83-.21a4.39,4.39,0,0,1-.77-.29,1.45,1.45,0,0,1-.55-.49,1.36,1.36,0,0,1-.21-.79,1.56,1.56,0,0,1,.23-.82,1.63,1.63,0,0,1,.72-.61,3.05,3.05,0,0,1,1.26-.23,3.48,3.48,0,0,1,1,.15,3,3,0,0,1,.86.41l-.17.37a3,3,0,0,0-.84-.4,3.39,3.39,0,0,0-.86-.13,2.55,2.55,0,0,0-1,.17,1.37,1.37,0,0,0-.58.45,1.17,1.17,0,0,0-.19.63.93.93,0,0,0,.21.64,1.43,1.43,0,0,0,.56.38,4,4,0,0,0,.76.24l.83.21a4.28,4.28,0,0,1,.76.29,1.54,1.54,0,0,1,.56.48,1.33,1.33,0,0,1,.21.78,1.51,1.51,0,0,1-.24.82,1.64,1.64,0,0,1-.73.6A3.07,3.07,0,0,1,70,100.66Z" transform="translate(-11.71)"/><path class="cls-2" d="M76.2,100.61V94.8H74v-.41h4.93v.41H76.65v5.81Z" transform="translate(-11.71)"/><path class="cls-2" d="M83.9,100.66a3.44,3.44,0,0,1-1.29-.24,3.21,3.21,0,0,1-1.71-4.17,3,3,0,0,1,.68-1,3.21,3.21,0,0,1,1-.67,3.59,3.59,0,0,1,2.58,0,3.2,3.2,0,0,1,1,.66,3.13,3.13,0,0,1,.93,2.26,3,3,0,0,1-.25,1.26,3,3,0,0,1-.68,1,2.89,2.89,0,0,1-1,.66A3.44,3.44,0,0,1,83.9,100.66Zm0-.42A3,3,0,0,0,85,100a2.65,2.65,0,0,0,.88-.58,2.73,2.73,0,0,0,.59-.87,2.82,2.82,0,0,0,.21-1.09,2.68,2.68,0,0,0-.8-2A2.62,2.62,0,0,0,85,95a2.84,2.84,0,0,0-1.1-.21,2.8,2.8,0,0,0-1.1.21,2.66,2.66,0,0,0-.89.57,2.55,2.55,0,0,0-.58.87,2.75,2.75,0,0,0-.21,1.09,2.82,2.82,0,0,0,.21,1.09,2.55,2.55,0,0,0,.58.87,2.69,2.69,0,0,0,.89.58A3,3,0,0,0,83.9,100.24Z" transform="translate(-11.71)"/><path class="cls-2" d="M90.05,100.61V94.39h2.23a3.21,3.21,0,0,1,1.34.25,1.92,1.92,0,0,1,.87.71,2.06,2.06,0,0,1,.3,1.14,2,2,0,0,1-.3,1.11,1.94,1.94,0,0,1-.87.72,3.2,3.2,0,0,1-1.34.26h-2l.2-.22v2.25Zm.45-2.22-.2-.21h2a2.29,2.29,0,0,0,1.53-.45,1.75,1.75,0,0,0,0-2.49,2.29,2.29,0,0,0-1.53-.44h-2l.2-.23Zm3.87,2.22-1.62-2.25h.52l1.62,2.25Z" transform="translate(-11.71)"/><path class="cls-2" d="M98.24,100.21h3.84v.4H97.79V94.39H102v.41H98.24Zm0-3h3.37v.4H98.19Z" transform="translate(-11.71)"/></g></g></svg>